Coordinates
version=1
nRows=11
nColumns=42
inDegrees=yes

Units are S.I. units (second, meters, Newtons, ...)
If the header above contains a line with 'inDegrees', this indicates whether rotational values are in degrees (yes) or radians (no).

endheader
time	pelvis_tilt	pelvis_list	pelvis_rotation	pelvis_tx	pelvis_ty	pelvis_tz	hip_flexion_r	hip_adduction_r	hip_rotation_r	knee_angle_r	knee_angle_r_beta	ankle_angle_r	subtalar_angle_r	mtp_angle_r	hip_flexion_l	hip_adduction_l	hip_rotation_l	knee_angle_l	knee_angle_l_beta	ankle_angle_l	subtalar_angle_l	mtp_angle_l	lumbar_extension	lumbar_bending	lumbar_rotation	sh_tx_r	sh_ty_r	sh_tz_r	sh_plane_elev_r	sh_elev_r	sh_axial_rot_r	elbow_flex_r	pro_sup_r	sh_tx_l	sh_ty_l	sh_tz_l	sh_plane_elev_l	sh_elev_l	sh_axial_rot_l	elbow_flex_l	pro_sup_l
      0.00000000	     -5.79431999	     -1.11947894	     -1.74674114	      0.30056111	      0.93704148	     -0.04120832	      6.58005925	     -4.70021661	     -1.25918502	      4.33303064	      0.07562565	     -0.61147427	     -4.36962444	     -5.97169715	      5.30138095	     -5.32745222	     -4.98103752	      5.35320199	      0.09343100	     10.57344602	      0.20125023	     -5.97169715	     -0.25989223	     -6.49119219	      3.27589783	     -0.01244658	      0.01382154	     -0.00786671	     -7.62517752	     78.59797922	    -11.28816155	    123.05486260	     74.05572133	      0.00766806	     -0.00445609	     -0.00716519	     29.15235020	     10.97685274	      0.30892181	     27.18696542	     75.94051330
      0.01694910	     -7.58164054	     -0.97418870	     -1.46462544	      0.30291828	      0.93184336	     -0.04120180	      7.54146677	     -4.85382396	     -1.51113515	      3.24547683	      0.05664426	      1.67783508	      0.55859957	     -6.30512821	      7.02677526	     -4.83113727	     -5.42406675	      4.35709416	      0.07604564	     10.49712511	      1.77991943	     -6.30512821	      2.78248906	     -6.63606987	      2.75713146	     -0.01344202	      0.01524751	     -0.00772547	     -5.61758595	     78.62501106	     -9.31786075	    120.84835924	     85.88986766	      0.00544926	     -0.00603490	     -0.00706976	     26.66802169	     11.81569970	      0.53935863	     24.86536470	     72.09905679
      0.03389830	     -8.02440250	     -0.31306334	     -1.41418887	      0.30326726	      0.93074205	     -0.04016015	      7.49340238	     -5.68090483	     -1.93258936	      2.14752133	      0.03748132	      1.84198402	      1.42224954	     -6.29595103	      7.07697333	     -4.19792512	     -6.58429370	      3.64941653	      0.06369433	      9.77680090	      2.52591865	     -6.29595103	      3.45118123	     -7.43820281	      2.80107128	     -0.01212439	      0.01716825	     -0.00756758	     -5.29016692	     79.34446072	     -8.77114926	    120.88602710	     86.17744950	      0.00509029	     -0.00449584	     -0.00685839	     26.76720649	     12.53156394	      0.99197966	     24.47055008	     71.74380887
      0.05084750	     -7.84719464	      0.09568595	     -1.37611034	      0.30319146	      0.93347979	     -0.03968752	      7.04274714	     -6.15541747	     -2.26010958	      1.52411900	      0.02660089	      2.42482163	      2.84200769	     -6.48325241	      6.26758908	     -3.72439192	     -6.72449737	      2.60816446	      0.04552106	      9.13382729	      2.41373473	     -6.48325241	      3.29129576	     -7.95719995	      2.94306549	     -0.01131601	      0.01595127	     -0.00746212	     -5.39126787	     80.54697234	     -8.69064001	    120.55457422	     86.05811354	      0.00449185	     -0.00373482	     -0.00672381	     26.27241830	     13.01604405	      1.97344022	     24.88114577	     69.69722585
      0.06779660	     -7.69907656	      0.26421217	     -1.29290169	      0.30297101	      0.93066071	     -0.03968566	      6.67318967	     -6.28345405	     -2.36199146	      1.05526909	      0.01841792	      3.05365477	      3.67726670	     -6.52036491	      5.78481417	     -3.49619872	     -6.43678575	      1.99798630	      0.03487144	      8.86533830	      2.15527065	     -6.52036491	      3.35130357	     -8.21628381	      3.03135209	     -0.00980321	      0.01633019	     -0.00740804	     -5.36257138	     81.41074185	     -8.16409166	    120.25523724	     86.03256728	      0.00511587	     -0.00344601	     -0.00673053	     26.23851794	     13.15853475	      2.75861170	     24.92111921	     68.95621095
      0.08474580	     -7.47009056	      0.38544494	     -1.30993210	      0.30250996	      0.93364521	     -0.03936286	      6.34896552	     -6.34767862	     -2.09050308	      0.79347223	      0.01384870	      3.33758115	      3.70287142	     -6.59219010	      5.34580614	     -3.34535308	     -6.45640544	      1.57470333	      0.02748376	      8.76253914	      2.60208420	     -6.59219010	      3.07748083	     -8.46224480	      3.00004815	     -0.00942396	      0.01531774	     -0.00739517	     -4.82868348	     81.91193631	     -8.24584160	    120.15620990	     85.21947918	      0.00513883	     -0.00406884	     -0.00674966	     26.61230362	     13.31641233	      2.54072295	     25.39857597	     67.42422494
      0.10169490	     -7.15400414	      0.38835333	     -1.24740905	      0.30210373	      0.93092199	     -0.03942418	      5.99756353	     -6.31907014	     -1.83287554	      0.66783267	      0.01165588	      3.56643262	      3.32588689	     -6.76845997	      4.96138384	     -3.32724912	     -6.35491208	      1.39227752	      0.02429983	      8.82962200	      2.87120995	     -6.76845997	      2.55067366	     -8.49780278	      2.51540332	     -0.00916559	      0.01508642	     -0.00737844	     -3.58011072	     82.44546603	     -8.54033105	    120.26882196	     84.24038055	      0.00309740	     -0.00395701	     -0.00670009	     27.75124456	     13.56220804	      1.37156921	     25.65491139	     64.05245830
      0.11864410	     -7.00243139	      0.38068466	     -1.13824100	      0.30191758	      0.93121403	     -0.03944087	      5.85094161	     -6.31818032	     -2.07937037	      0.66550751	      0.01161530	      3.73634350	      3.41194005	     -6.87927695	      4.76030426	     -3.31914482	     -5.96562352	      1.27428098	      0.02224040	      8.74720456	      2.80083725	     -6.87927695	      2.53653191	     -8.58599457	      2.31734362	     -0.00834799	      0.01415232	     -0.00735979	     -3.38140128	     82.79574149	     -8.21442910	    120.23233685	     82.91245677	      0.00388894	     -0.00358162	     -0.00664705	     27.80488910	     13.50025499	      1.28342898	     25.56344867	     62.32360277
      0.13559320	     -6.90454082	      0.38988407	     -1.09344623	      0.30101172	      0.93138146	     -0.03929511	      6.01349512	     -6.32346193	     -2.13325790	      1.09641171	      0.01913599	      4.03614842	      3.15088027	     -6.94544341	      4.92438735	     -3.35318631	     -5.80381527	      1.73118830	      0.03021494	      8.93738136	      2.77653530	     -6.94544341	      2.27211210	     -8.86600298	      2.08088765	     -0.00861894	      0.01494042	     -0.00630940	     -3.03704620	     82.44145884	     -8.43185744	    120.12051597	     81.88442226	      0.00272872	     -0.00138165	     -0.00591570	     27.88601397	     13.70979247	      1.30329105	     26.00151173	     61.14036070
      0.15254240	     -6.49108749	      0.37030562	     -1.06647184	      0.30113480	      0.93512060	     -0.03926854	      5.24948962	     -6.25926993	     -2.18029834	      0.57062327	      0.00995925	      3.73331666	      3.31232405	     -7.14665672	      4.18611172	     -3.34304900	     -5.60911844	      1.15623603	      0.02018013	      8.57065852	      2.86481372	     -7.14665672	      1.82043784	     -8.86464822	      3.02181510	     -0.01087073	      0.01448626	     -0.00737008	     -3.96087638	     82.25251583	     -8.53623621	    120.48568898	     83.11474850	      0.00365589	     -0.00289730	     -0.00669049	     32.09155669	     14.17292589	      0.29688508	     25.01469205	     54.45958326
      0.16949150	     -6.53098994	      0.38829743	     -1.15888140	      0.30094234	      0.93485583	     -0.03907440	      5.31424576	     -6.25231848	     -2.09996905	      0.53966363	      0.00941891	      3.62749385	      3.29887992	     -7.17986360	      4.23413511	     -3.38926168	     -5.46488476	      1.08041737	      0.01885684	      8.36597861	      2.85864068	     -7.17986360	      1.94691859	     -8.94616455	      3.03769557	     -0.01087190	      0.01586708	     -0.00725886	     -3.76564120	     81.30879037	     -8.47987687	    120.45666559	     82.09988477	      0.00372889	     -0.00286122	     -0.00663757	     31.60568734	     14.05938088	      0.19795229	     24.97859569	     54.53808570
